<svg width="50" height="50" viewBox="0 0 50 50" fill="none" xmlns="http://www.w3.org/2000/svg">
<g id="Quote Icon">
<path id="&#226;&#128;&#156;" d="M37.385 40.6433C35.3468 40.6433 33.5379 40.1083 31.9583 39.0382C30.3787 37.9682 29.1303 36.5159 28.2131 34.6815C27.2959 32.8471 26.8373 30.8089 26.8373 28.5669C26.8373 24.8981 28.0347 21.3057 30.4296 17.7898C32.8755 14.2229 36.315 11.293 40.7481 9L49.3086 13.586C46.4041 15.0127 43.9328 16.6688 41.8946 18.5541C39.9073 20.4395 38.557 22.6561 37.8436 25.2038C40.2385 25.4076 42.1748 26.1465 43.6525 27.4204C45.1812 28.6433 45.9455 30.3503 45.9455 32.5414C45.9455 34.7325 45.1557 36.6433 43.5761 38.2739C42.0474 39.8535 39.9838 40.6433 37.385 40.6433ZM11.8564 40.6433C9.81815 40.6433 8.00923 40.1083 6.42961 39.0382C4.85 37.9682 3.60159 36.5159 2.68439 34.6815C1.76719 32.8471 1.30859 30.8089 1.30859 28.5669C1.30859 24.8981 2.50605 21.3057 4.90095 17.7898C7.34681 14.2229 10.7863 11.293 15.2194 9L23.7799 13.586C20.8755 15.0127 18.4041 16.6688 16.3659 18.5541C14.3787 20.4395 13.0283 22.6561 12.315 25.2038C14.7099 25.4076 16.6462 26.1465 18.1239 27.4204C19.6525 28.6433 20.4169 30.3503 20.4169 32.5414C20.4169 34.7325 19.6271 36.6433 18.0474 38.2739C16.5188 39.8535 14.4551 40.6433 11.8564 40.6433Z" fill="#F57D0C"/>
</g>
</svg>
